<svg width="20" height="20" viewBox="0 0 20 20" fill="none" xmlns="http://www.w3.org/2000/svg">
<path d="M17.4728 12.8319L15.6466 11.0255C15.286 10.6706 14.7994 10.4731 14.2935 10.4764C13.7876 10.4796 13.3036 10.6833 12.9477 11.0428L11.8913 12.1062C11.095 11.7322 10.3684 11.2248 9.74295 10.606C9.11335 9.98662 8.5994 9.25976 8.22533 8.45968L9.26971 7.40411C9.62463 7.04356 9.8221 6.557 9.81886 6.05108C9.81561 5.54517 9.61191 5.06118 9.2524 4.70521L7.43091 2.8973C7.07055 2.542 6.58407 2.34402 6.07802 2.34671C5.57197 2.3494 5.08762 2.55254 4.73105 2.91164L3.39865 4.26113C2.89111 4.76982 2.57102 5.43556 2.49064 6.14963C2.41027 6.86371 2.57436 7.58394 2.95612 8.19273C4.12028 10.0536 5.49626 11.7733 7.05648 13.3173C8.61328 14.8568 10.3426 16.2115 12.21 17.3545C12.8242 17.7333 13.5487 17.8926 14.2652 17.8062C14.9816 17.7198 15.6475 17.3928 16.154 16.8788L17.3119 15.7091C17.5186 15.5354 17.6875 15.3213 17.8083 15.0798C17.929 14.8384 17.9991 14.5748 18.0142 14.3053C18.0293 14.0357 17.989 13.766 17.8959 13.5126C17.8028 13.2592 17.6588 13.0275 17.4728 12.8319ZM16.4234 14.8302L15.2654 15.9999C14.9567 16.3129 14.551 16.5118 14.1145 16.5642C13.678 16.6165 13.2367 16.5192 12.8628 16.2881C11.0784 15.1944 9.4261 13.8986 7.9386 12.4264C6.44631 10.9513 5.12991 9.30829 4.01573 7.53025C3.78334 7.1597 3.68357 6.72125 3.73275 6.28664C3.78192 5.85202 3.97712 5.44695 4.28643 5.13769L5.61884 3.7882C5.69291 3.713 5.78403 3.65679 5.88446 3.62431C5.94891 3.60372 6.01614 3.59309 6.0838 3.59282C6.17044 3.5921 6.25637 3.60858 6.3366 3.6413C6.41684 3.67403 6.48978 3.72235 6.5512 3.78347L8.37685 5.59004C8.50076 5.71306 8.57087 5.88016 8.57184 6.05477C8.5728 6.22937 8.50454 6.39724 8.38199 6.52162L7.33701 7.57738C7.15343 7.76087 7.031 7.99659 6.98646 8.2523C6.94192 8.50801 6.97744 8.77124 7.08816 9.006C7.98323 10.8634 9.49051 12.3561 11.3566 13.233C11.5931 13.3426 11.8576 13.3764 12.114 13.3299C12.3705 13.2833 12.6062 13.1586 12.7891 12.9729L13.8335 11.9174C13.9567 11.7936 14.124 11.7236 14.2987 11.7227C14.4734 11.7218 14.6413 11.7901 14.7658 11.9126L16.5915 13.7192C16.8778 14.0018 16.8109 14.4378 16.4234 14.8302Z" fill="#848EB4"/>
</svg>
