<svg width="100" height="100" viewBox="0 0 100 100" fill="none" xmlns="http://www.w3.org/2000/svg">
<path fill-rule="evenodd" clip-rule="evenodd" d="M41.6977 2.95703C20.3018 2.95703 2.95703 20.3018 2.95703 41.6977C2.95703 63.0935 20.3018 80.4372 41.6977 80.4372C46.3029 80.4372 50.7206 79.632 54.8174 78.157C54.3018 77.3518 54.0654 76.4539 53.9289 75.4852C53.8893 75.2029 53.8539 74.6956 53.7799 74.3737C53.5331 74.1456 53.1112 73.8633 52.8799 73.682C51.9445 72.9487 51.1758 72.1352 50.7633 70.9945C50.3487 69.8518 50.4268 68.7404 50.6768 67.5779C50.7362 67.3008 50.8799 66.8039 50.9174 66.4799C50.7924 66.2331 50.5497 65.8945 50.4227 65.6956C49.9008 64.882 49.4737 64.0831 49.3029 63.1164C49.2049 62.5591 49.2102 62.0185 49.2987 61.4945H20.7477C20.7477 49.9237 30.1279 40.5445 41.6977 40.5445C46.9445 40.5445 51.7393 42.4737 55.4143 45.6612C56.157 44.8904 57.0737 44.4529 58.0956 44.1195C58.3695 44.0299 58.8612 43.9081 59.1674 43.7779C59.3487 43.4956 59.5529 43.032 59.6904 42.7737C60.2487 41.7247 60.9133 40.8258 61.9633 40.2195C63.0143 39.6122 64.1237 39.4935 65.3091 39.5341C65.5956 39.5435 66.0997 39.5977 66.432 39.58C66.7008 39.3747 67.0487 39.0112 67.2685 38.8143C68.1518 38.0227 69.0872 37.4091 70.2789 37.1987C71.4706 36.9883 72.5602 37.2445 73.6612 37.6872C73.9352 37.7977 74.3872 38.0195 74.7091 38.1206C75.0268 38.0227 75.482 37.8008 75.7487 37.6935C76.8487 37.2497 77.932 36.982 79.1279 37.1935C79.5143 37.2612 79.8737 37.3727 80.2122 37.5185C78.1279 18.0883 61.681 2.95703 41.6977 2.95703ZM69.8716 87.2862L65.3299 97.0425L61.4185 90.3122L53.7497 91.6518L58.8581 80.68C58.9737 80.7164 59.082 80.755 59.1747 80.7935C59.356 81.0737 59.5612 81.5372 59.6966 81.7914C60.2539 82.8383 60.9154 83.7373 61.9654 84.3435C63.0154 84.9498 64.1237 85.0737 65.3102 85.0331C65.5977 85.0237 66.1018 84.9695 66.4341 84.9872C66.7008 85.1904 67.0518 85.556 67.2685 85.7518C68.0487 86.455 68.8675 87.0195 69.8716 87.2862ZM91.6664 80.3279L95.6581 89.5956L88.032 88.0341L83.9279 94.6487L80.5789 86.8737C81.1383 86.582 81.6466 86.1966 82.1383 85.756C82.3581 85.5591 82.707 85.1945 82.9747 84.9893C83.307 84.9727 83.8112 85.0258 84.0977 85.0352C85.2831 85.0758 86.3935 84.957 87.4445 84.3497C88.4945 83.7435 89.1602 82.8435 89.7174 81.7956C89.8549 81.5383 90.0591 81.0737 90.2404 80.7914C90.5466 80.6612 91.0393 80.5393 91.3122 80.4498C91.431 80.4112 91.5497 80.3706 91.6664 80.3279ZM97.0174 61.9977C97.2602 63.3768 95.6268 64.5789 95.3883 65.932C95.1633 67.207 96.1154 68.7768 95.6966 69.9258C95.2747 71.081 93.5289 71.6768 92.8893 72.7831C92.2477 73.8925 92.6029 75.7029 91.8154 76.6425C91.0299 77.58 89.1862 77.5466 88.2029 78.3737C87.2268 79.1945 86.9466 81.0154 85.8758 81.6341C84.8268 82.2404 83.0966 81.581 81.8883 82.0195C80.7018 82.4497 79.8143 84.0654 78.5831 84.282C77.3518 84.4987 75.9654 83.2852 74.7029 83.2862C73.4174 83.2873 72.0174 84.4987 70.8247 84.2872C69.607 84.0727 68.7195 82.457 67.5227 82.0195C66.3164 81.5789 64.5956 82.2404 63.5362 81.6289C62.4737 81.0143 62.1883 79.1935 61.207 78.3695C60.2268 77.5477 58.3841 77.5862 57.5914 76.6445C56.8049 75.7091 57.1622 73.906 56.5154 72.7862C55.8799 71.6872 54.1362 71.0925 53.7122 69.9247C53.2987 68.7831 54.2539 67.2206 54.0258 65.93C53.8164 64.7425 52.5862 63.681 52.3904 62.5706C52.1466 61.1904 53.781 59.9893 54.0195 58.6362C54.2445 57.3622 53.2924 55.7904 53.7112 54.6425C54.1331 53.4862 55.8789 52.8904 56.5185 51.7852C57.1591 50.6758 56.8049 48.8664 57.5924 47.9258C58.3779 46.9883 60.2216 47.0216 61.2049 46.1945C62.181 45.3737 62.4622 43.5518 63.532 42.9341C64.581 42.3279 66.3112 42.9872 67.5195 42.5487C68.707 42.1185 69.5935 40.5029 70.8247 40.2862C72.056 40.0685 73.4425 41.2831 74.7049 41.282C75.9904 41.281 77.3904 40.0695 78.5831 40.281C79.8008 40.4956 80.6883 42.1122 81.8852 42.5487C83.0924 42.9893 84.8133 42.3279 85.8716 42.9393C86.9341 43.5539 87.2195 45.3758 88.2008 46.1987C89.1799 47.0195 91.0247 46.982 91.8164 47.9237C92.6029 48.8602 92.2456 50.6612 92.8924 51.782C93.5268 52.8799 95.2716 53.4758 95.6956 54.6435C96.1091 55.7841 95.1539 57.3477 95.382 58.6383C95.5924 59.8258 96.8227 60.8883 97.0174 61.9977ZM74.7039 45.4935C79.3404 45.4935 83.5383 47.3727 86.5768 50.4122C89.6154 53.4508 91.4956 57.6487 91.4956 62.2852C91.4956 66.9216 89.6164 71.1195 86.5768 74.1581C83.5383 77.1966 79.3404 79.0768 74.7039 79.0768C70.0675 79.0768 65.8695 77.1977 62.831 74.1581C59.7924 71.1195 57.9122 66.9216 57.9122 62.2852C57.9122 57.6487 59.7914 53.4508 62.831 50.4122C65.8685 47.3727 70.0664 45.4935 74.7039 45.4935ZM84.3591 52.6289C86.8299 55.0997 88.3591 58.5143 88.3591 62.2852C88.3591 66.056 86.831 69.4706 84.3591 71.9414C81.8872 74.4123 78.4737 75.9414 74.7029 75.9414C70.932 75.9414 67.5174 74.4133 65.0466 71.9414C62.5758 69.4706 61.0466 66.056 61.0466 62.2852C61.0466 58.5143 62.5747 55.0997 65.0466 52.6289C67.5174 50.1581 70.932 48.6289 74.7029 48.6289C78.4747 48.6289 81.8883 50.1581 84.3591 52.6289ZM74.7039 52.1987L77.2862 58.5185L84.0945 59.0216L78.882 63.43L80.507 70.0602L74.7039 66.4654L68.9008 70.0602L70.5258 63.43L65.3143 59.0216L72.1227 58.5185L74.7039 52.1987ZM41.6977 17.4008C47.5477 17.4008 52.2904 22.1435 52.2904 27.9935C52.2904 33.8435 47.5477 38.5862 41.6977 38.5862C35.8477 38.5862 31.1049 33.8435 31.1049 27.9935C31.1049 22.1424 35.8477 17.4008 41.6977 17.4008Z" fill="#41518B"/>
</svg>
