<svg width="100" height="100" viewBox="0 0 100 100" fill="none" xmlns="http://www.w3.org/2000/svg">
<path d="M92.228 29.9069L53.0999 7.55062C52.1551 7.0131 51.0868 6.73047 49.9999 6.73047C48.9129 6.73047 47.8446 7.0131 46.8999 7.55062L7.77175 29.9069C7.00272 30.3468 6.33599 30.9451 5.81579 31.6623C5.29559 32.3795 4.93381 33.199 4.75444 34.0666C4.57506 34.9343 4.5822 35.8301 4.77537 36.6947C4.96854 37.5594 5.34333 38.3731 5.87488 39.0819L11.4999 46.5819C12.0856 47.3596 12.8443 47.9904 13.7159 48.4243C14.5875 48.8582 15.5481 49.0833 16.5218 49.0819C17.5604 49.0823 18.5825 48.8212 19.4936 48.3225L49.9999 31.685L80.503 48.3225C81.823 49.0357 83.3547 49.253 84.8209 48.9348C86.2871 48.6167 87.5911 47.7843 88.4968 46.5881L94.1218 39.0881C94.6533 38.3793 95.0281 37.5656 95.2213 36.701C95.4144 35.8363 95.4216 34.9405 95.2422 34.0729C95.0628 33.2053 94.701 32.3857 94.1808 31.6686C93.6607 30.9514 92.9939 30.353 92.2249 29.9131L92.228 29.9069Z" fill="#41518B"/>
<path d="M83.4688 52.2187C81.9058 52.2137 80.3692 51.8161 79 51.0625L50 35.25L21 51.0625C19.6308 51.8161 18.0942 52.2137 16.5312 52.2187C16.2278 52.2302 15.924 52.2092 15.625 52.1563V81.25C15.6299 82.9061 16.29 84.4929 17.461 85.664C18.6321 86.835 20.2189 87.4951 21.875 87.5H78.125C79.7811 87.4951 81.3679 86.835 82.539 85.664C83.71 84.4929 84.3701 82.9061 84.375 81.25V52.1563C84.076 52.2092 83.7722 52.2302 83.4688 52.2187ZM48.4375 60.9375H51.5625C53.4973 60.9393 55.3625 61.659 56.7971 62.9572C58.2317 64.2554 59.1335 66.0397 59.328 67.9647C59.5225 69.8897 58.9957 71.8183 57.8498 73.3772C56.7039 74.9361 55.0203 76.0143 53.125 76.4031V78.125C53.125 78.9538 52.7958 79.7487 52.2097 80.3347C51.6237 80.9208 50.8288 81.25 50 81.25C49.1712 81.25 48.3763 80.9208 47.7903 80.3347C47.2042 79.7487 46.875 78.9538 46.875 78.125V76.5625H43.75C42.9212 76.5625 42.1263 76.2333 41.5403 75.6472C40.9542 75.0612 40.625 74.2663 40.625 73.4375C40.625 72.6087 40.9542 71.8138 41.5403 71.2278C42.1263 70.6417 42.9212 70.3125 43.75 70.3125H51.5625C51.9769 70.3125 52.3743 70.1479 52.6674 69.8549C52.9604 69.5618 53.125 69.1644 53.125 68.75C53.125 68.3356 52.9604 67.9382 52.6674 67.6451C52.3743 67.3521 51.9769 67.1875 51.5625 67.1875H48.4375C46.5027 67.1857 44.6375 66.466 43.2029 65.1678C41.7683 63.8696 40.8665 62.0853 40.672 60.1603C40.4776 58.2354 41.0043 56.3067 42.1502 54.7478C43.2961 53.1889 44.9797 52.1107 46.875 51.7219V50C46.875 49.1712 47.2042 48.3763 47.7903 47.7903C48.3763 47.2042 49.1712 46.875 50 46.875C50.8288 46.875 51.6237 47.2042 52.2097 47.7903C52.7958 48.3763 53.125 49.1712 53.125 50V51.5625H56.25C57.0788 51.5625 57.8737 51.8917 58.4597 52.4778C59.0458 53.0638 59.375 53.8587 59.375 54.6875C59.375 55.5163 59.0458 56.3112 58.4597 56.8972C57.8737 57.4833 57.0788 57.8125 56.25 57.8125H48.4375C48.0231 57.8125 47.6257 57.9771 47.3326 58.2701C47.0396 58.5632 46.875 58.9606 46.875 59.375C46.875 59.7894 47.0396 60.1868 47.3326 60.4799C47.6257 60.7729 48.0231 60.9375 48.4375 60.9375Z" fill="#41518B"/>
</svg>
