<svg width="100" height="100" viewBox="0 0 100 100" fill="none" xmlns="http://www.w3.org/2000/svg">
<path d="M13 6C9.1566 6 6 9.1566 6 13V41C6 44.8434 9.1566 48 13 48H41C44.8434 48 48 44.8434 48 41V13C48 9.1566 44.8434 6 41 6H13ZM72.7812 11.9688C72.2842 12.0234 71.8256 12.2622 71.4959 12.6382C71.1662 13.0142 70.9892 13.5 71 14V25H60C59.9375 24.9971 59.875 24.9971 59.8125 25C59.5498 25.0123 59.2921 25.0761 59.0541 25.188C58.8162 25.2999 58.6025 25.4575 58.4255 25.6519C58.2484 25.8464 58.1114 26.0738 58.0222 26.3212C57.9331 26.5686 57.8935 26.8311 57.9059 27.0938C57.9182 27.3565 57.9821 27.6141 58.094 27.8521C58.2059 28.0901 58.3636 28.3036 58.5581 28.4807C58.7525 28.6577 58.98 28.7946 59.2274 28.8838C59.4748 28.9729 59.7373 29.0124 60 29H71V40C70.9963 40.265 71.0452 40.5281 71.144 40.7741C71.2429 41.02 71.3896 41.2439 71.5757 41.4326C71.7618 41.6213 71.9835 41.7712 72.228 41.8735C72.4725 41.9758 72.7349 42.0285 73 42.0285C73.2651 42.0285 73.5275 41.9758 73.772 41.8735C74.0165 41.7712 74.2382 41.6213 74.4243 41.4326C74.6104 41.2439 74.7571 41.02 74.856 40.7741C74.9548 40.5281 75.0037 40.265 75 40V29H86C86.265 29.0037 86.5282 28.9548 86.7741 28.856C87.02 28.7571 87.2439 28.6104 87.4326 28.4243C87.6213 28.2382 87.7712 28.0165 87.8735 27.772C87.9758 27.5275 88.0285 27.265 88.0285 27C88.0285 26.735 87.9758 26.4725 87.8735 26.228C87.7712 25.9835 87.6213 25.7618 87.4326 25.5757C87.2439 25.3896 87.02 25.2429 86.7741 25.1441C86.5282 25.0452 86.265 24.9963 86 25H75V14C75.0061 13.7153 74.9514 13.4325 74.8395 13.1707C74.7275 12.9088 74.561 12.6739 74.3509 12.4816C74.1409 12.2893 73.8922 12.1441 73.6215 12.0556C73.3508 11.9672 73.0643 11.9376 72.7812 11.9688ZM13 52C9.1566 52 6 55.1566 6 59V87C6 90.8434 9.1566 94 13 94H41C44.8434 94 48 90.8434 48 87V59C48 55.1566 44.8434 52 41 52H13ZM59 52C55.1566 52 52 55.1566 52 59V87C52 90.8434 55.1566 94 59 94H87C90.8434 94 94 90.8434 94 87V59C94 55.1566 90.8434 52 87 52H59Z" fill="#41518B"/>
</svg>
