<svg width="20" height="20" viewBox="0 0 20 20" fill="none" xmlns="http://www.w3.org/2000/svg">
<path d="M15.625 18.75H4.375C2.65 18.75 1.25 17.35 1.25 15.625V5.625C1.25 3.9 2.65 2.5 4.375 2.5H15.625C17.35 2.5 18.75 3.9 18.75 5.625V15.625C18.75 17.35 17.35 18.75 15.625 18.75ZM4.375 3.75C3.34375 3.75 2.5 4.59375 2.5 5.625V15.625C2.5 16.6562 3.34375 17.5 4.375 17.5H15.625C16.6562 17.5 17.5 16.6562 17.5 15.625V5.625C17.5 4.59375 16.6562 3.75 15.625 3.75H4.375Z" fill="#848EB4"/>
<path d="M17.5 8.75H2.5C2.15625 8.75 1.875 8.46875 1.875 8.125C1.875 7.78125 2.15625 7.5 2.5 7.5H17.5C17.8438 7.5 18.125 7.78125 18.125 8.125C18.125 8.46875 17.8438 8.75 17.5 8.75Z" fill="#848EB4"/>
<path d="M6.25 15.625H5C4.65625 15.625 4.375 15.3438 4.375 15C4.375 14.6562 4.65625 14.375 5 14.375H6.25C6.59375 14.375 6.875 14.6562 6.875 15C6.875 15.3438 6.59375 15.625 6.25 15.625Z" fill="#848EB4"/>
<path d="M6.25 5C5.90625 5 5.625 4.71875 5.625 4.375V1.875C5.625 1.53125 5.90625 1.25 6.25 1.25C6.59375 1.25 6.875 1.53125 6.875 1.875V4.375C6.875 4.71875 6.59375 5 6.25 5Z" fill="#848EB4"/>
<path d="M13.75 5C13.4062 5 13.125 4.71875 13.125 4.375V1.875C13.125 1.53125 13.4062 1.25 13.75 1.25C14.0938 1.25 14.375 1.53125 14.375 1.875V4.375C14.375 4.71875 14.0938 5 13.75 5Z" fill="#848EB4"/>
<path d="M6.25 11.875H5C4.65625 11.875 4.375 11.5938 4.375 11.25C4.375 10.9062 4.65625 10.625 5 10.625H6.25C6.59375 10.625 6.875 10.9062 6.875 11.25C6.875 11.5938 6.59375 11.875 6.25 11.875Z" fill="#848EB4"/>
<path d="M10.625 11.875H9.375C9.03125 11.875 8.75 11.5938 8.75 11.25C8.75 10.9062 9.03125 10.625 9.375 10.625H10.625C10.9688 10.625 11.25 10.9062 11.25 11.25C11.25 11.5938 10.9688 11.875 10.625 11.875Z" fill="#848EB4"/>
<path d="M15 11.875H13.75C13.4062 11.875 13.125 11.5938 13.125 11.25C13.125 10.9062 13.4062 10.625 13.75 10.625H15C15.3438 10.625 15.625 10.9062 15.625 11.25C15.625 11.5938 15.3438 11.875 15 11.875Z" fill="#848EB4"/>
<path d="M10.625 15.625H9.375C9.03125 15.625 8.75 15.3438 8.75 15C8.75 14.6562 9.03125 14.375 9.375 14.375H10.625C10.9688 14.375 11.25 14.6562 11.25 15C11.25 15.3438 10.9688 15.625 10.625 15.625Z" fill="#848EB4"/>
<path d="M15 15.625H13.75C13.4062 15.625 13.125 15.3438 13.125 15C13.125 14.6562 13.4062 14.375 13.75 14.375H15C15.3438 14.375 15.625 14.6562 15.625 15C15.625 15.3438 15.3438 15.625 15 15.625Z" fill="#848EB4"/>
</svg>
