<svg width="47" height="43" viewBox="0 0 47 43" fill="none" xmlns="http://www.w3.org/2000/svg">
<g clip-path="url(#clip0_1_948)">
<path d="M47 9.38805L30.7752 0C23.6672 4.04526 8.75583 12.4792 5.62675 14.311C3.61777 15.4871 5.16318 17.9747 7.13334 16.9443L14.2029 12.9557V16.3658C11.576 17.8542 4.46793 21.6383 0.991198 23.4701C-0.939781 24.4876 0.180035 27.3627 2.38188 26.3323L14.2029 20.0355L14.1602 22.9553C13.3489 23.4133 10.8744 24.8129 7.72213 26.5531C5.29702 28.1719 6.85914 30.6755 9.38256 29.3913L14.342 26.5531L15.3361 29.2079C12.4774 30.9252 5.9976 34.6442 3.30891 36.2928C1.38627 37.6469 3.15594 40.0643 5.62674 38.4681L18.7225 30.6829L21.7012 32.3501C20.6582 32.9989 17.9287 34.7377 15.3327 36.3864C13.2078 37.7358 15.0038 40.4922 17.3126 38.8908L24.6329 34.232L27.1826 35.8349C25.676 36.8652 22.6806 38.9495 20.7998 40.0988C18.5287 41.4866 20.074 44.1235 22.6628 42.4752L47 27.8207V9.38805Z" fill="url(#paint0_linear_1_948)"/>
<path d="M19.8594 12.5082L30.8758 5.79297L41.9395 12.2844M19.8594 12.5082L30.8758 19.0338M19.8594 12.5082V24.9664L31.1122 31.3288M41.9395 12.2844L30.8758 19.0338M41.9395 12.2844V24.9664L31.1122 31.3288M30.8758 19.0338L31.1122 31.3288" stroke="#004B70" stroke-width="3"/>
<path d="M17.3496 18.2229L19.5867 12.4688L30.8851 19.1697L42.2412 12.25L44.5083 17.8273L33.5502 24.853L30.8851 19.1697L28.7001 24.853L17.3496 18.2229Z" fill="#004B70"/>
<path d="M30.8851 19.1697L28.7001 24.853L17.3496 18.2229L19.5867 12.4688L30.8851 19.1697ZM30.8851 19.1697L33.5502 24.853L44.5083 17.8273L42.2412 12.25L30.8851 19.1697Z" stroke="#004B70"/>
</g>
<defs>
<linearGradient id="paint0_linear_1_948" x1="1.18945" y1="26.7638" x2="47.824" y2="14.1347" gradientUnits="userSpaceOnUse">
<stop stop-color="#00FFE2"/>
<stop offset="1" stop-color="#00B9ED"/>
</linearGradient>
<clipPath id="clip0_1_948">
<rect width="47" height="43" fill="white"/>
</clipPath>
</defs>
</svg>
