<svg width="297" height="27" viewBox="0 0 297 27" fill="none" xmlns="http://www.w3.org/2000/svg">
<g clip-path="url(#clip0_1_953)">
<path d="M18.5835 0.0742188V22.9995H13.3726V7.52246L11.291 22.9995H7.59521L5.40039 7.87646V22.9995H0.189453V0.0742188H7.90674C8.1333 1.45247 8.37402 3.07617 8.62891 4.94531L9.4502 10.7793L10.8096 0.0742188H18.5835ZM32.7861 4.20898L31.1436 17.8027C30.8887 19.9551 30.6715 21.423 30.4922 22.2065C30.3223 22.9901 30.0343 23.6367 29.6284 24.1465C29.2225 24.6562 28.6561 25.0291 27.9292 25.2651C27.2118 25.5106 26.0601 25.6333 24.4741 25.6333H21.0049V22.6313C21.8923 22.6313 22.4634 22.5889 22.7183 22.5039C22.9731 22.4095 23.1006 22.2065 23.1006 21.895C23.1006 21.744 22.9826 21.0879 22.7466 19.9267L19.6172 4.20898H24.814L26.6831 16.8823L27.5894 4.20898H32.7861ZM45.063 0.0742188V18.4116H48.688V22.9995H39.1016V0.0742188H45.063ZM62.9189 10.8076V15.4097C62.9189 17.0994 62.834 18.3408 62.6641 19.1338C62.4941 19.9173 62.1307 20.6536 61.5737 21.3428C61.0168 22.0224 60.2993 22.5275 59.4214 22.8579C58.5529 23.1789 57.5522 23.3393 56.4194 23.3393C55.1545 23.3393 54.083 23.2025 53.2051 22.9287C52.3271 22.6455 51.6427 22.2254 51.1519 21.6684C50.6704 21.102 50.3258 20.4224 50.1182 19.6294C49.9105 18.827 49.8066 17.6281 49.8066 16.0327V11.2183C49.8066 9.47184 49.9954 8.10775 50.373 7.12597C50.7507 6.1442 51.4303 5.35596 52.4121 4.76123C53.3939 4.1665 54.6494 3.86914 56.1787 3.86914C57.4626 3.86914 58.5623 4.06266 59.478 4.44971C60.4032 4.82731 61.1159 5.32291 61.6162 5.93652C62.1165 6.55013 62.4564 7.18262 62.6357 7.83398C62.8245 8.48535 62.9189 9.47656 62.9189 10.8076ZM57.1982 9.3916C57.1982 8.42871 57.1463 7.82454 57.0425 7.5791C56.9386 7.32422 56.7168 7.19678 56.377 7.19678C56.0371 7.19678 55.8105 7.32422 55.6973 7.5791C55.584 7.82454 55.5273 8.42871 55.5273 9.3916V17.8735C55.5273 18.7609 55.584 19.3415 55.6973 19.6152C55.8105 19.8795 56.0324 20.0117 56.3628 20.0117C56.7026 20.0117 56.9245 19.889 57.0283 19.6435C57.1416 19.3981 57.1982 18.8695 57.1982 18.0576V9.3916ZM70.6362 4.20898L70.5371 5.93652C70.9525 5.24739 71.4575 4.73291 72.0522 4.39306C72.6564 4.04378 73.3503 3.86914 74.1338 3.86914C75.1156 3.86914 75.918 4.10042 76.541 4.56299C77.1641 5.02555 77.5653 5.61084 77.7446 6.31885C77.924 7.01741 78.0137 8.18799 78.0137 9.83056V22.9995H72.293V9.98633C72.293 8.69303 72.2505 7.90478 72.1655 7.62158C72.0806 7.33838 71.8446 7.19678 71.4575 7.19678C71.0516 7.19678 70.7967 7.36198 70.6929 7.69238C70.589 8.01334 70.5371 8.88183 70.5371 10.2978V22.9995H64.8164V4.20898H70.6362ZM92.9951 4.20898V18.6807C92.9951 20.6348 92.9479 21.8997 92.8535 22.4756C92.7686 23.042 92.4523 23.6414 91.9048 24.2739C91.3573 24.9158 90.5926 25.402 89.6108 25.7324C88.6385 26.0723 87.4113 26.2422 85.9292 26.2422C84.1073 26.2422 82.644 25.9307 81.5396 25.3076C80.4351 24.694 79.8639 23.4809 79.8262 21.6684H85.377C85.377 22.4992 85.679 22.9145 86.2832 22.9145C86.7174 22.9145 87.0054 22.7871 87.147 22.5322C87.2886 22.2773 87.3594 21.744 87.3594 20.9321V19.5161C86.8685 19.9598 86.3493 20.2949 85.8018 20.5215C85.2637 20.748 84.6973 20.8613 84.1025 20.8613C83.0736 20.8613 82.224 20.6536 81.5537 20.2383C80.8929 19.8229 80.4398 19.2801 80.1943 18.6099C79.9489 17.9302 79.8262 16.9673 79.8262 15.7212V8.89599C79.8262 7.11181 80.1471 5.82796 80.7891 5.04443C81.431 4.2609 82.408 3.86914 83.7202 3.86914C84.4377 3.86914 85.089 4.01546 85.6743 4.3081C86.269 4.60075 86.7977 5.03971 87.2603 5.625L87.6709 4.20898H92.9951ZM87.2603 9.19336C87.2603 8.33431 87.2083 7.78678 87.1045 7.55078C87.0101 7.31478 86.793 7.19678 86.4531 7.19678C86.1227 7.19678 85.8867 7.33366 85.7451 7.60742C85.613 7.87174 85.5469 8.40039 85.5469 9.19336V15.5088C85.5469 16.3489 85.5988 16.8965 85.7026 17.1514C85.8065 17.3968 86.0236 17.5195 86.354 17.5195C86.7316 17.5195 86.9771 17.3685 87.0903 17.0664C87.2036 16.7643 87.2603 16.0799 87.2603 15.0132V9.19336ZM100.33 0.0742188H104.791C107.67 0.0742188 109.614 0.20638 110.625 0.470703C111.644 0.735026 112.418 1.16927 112.947 1.77344C113.475 2.3776 113.806 3.05257 113.938 3.79834C114.07 4.53467 114.136 5.98844 114.136 8.15967V16.1885C114.136 18.2464 114.037 19.6247 113.839 20.3232C113.65 21.0124 113.315 21.5552 112.833 21.9516C112.352 22.3387 111.757 22.6125 111.049 22.7729C110.341 22.924 109.275 22.9995 107.849 22.9995H100.33V0.0742188ZM106.292 3.99658V19.0771C107.151 19.0771 107.679 18.9072 107.877 18.5674C108.076 18.2181 108.175 17.2788 108.175 15.7495V6.84277C108.175 5.80436 108.142 5.13883 108.076 4.84619C108.01 4.55355 107.859 4.34114 107.623 4.20898C107.387 4.06738 106.943 3.99658 106.292 3.99658ZM122.08 0.0742188V3.06201H116.189V0.0742188H122.08ZM122.08 4.20898V22.9995H116.189V4.20898H122.08ZM135.83 10.2129H130.76V9.19336C130.76 8.32487 130.708 7.77734 130.604 7.55078C130.51 7.31478 130.265 7.19678 129.868 7.19678C129.547 7.19678 129.306 7.30534 129.146 7.52246C128.986 7.73014 128.905 8.04639 128.905 8.47119C128.905 9.04704 128.943 9.47184 129.019 9.7456C129.104 10.0099 129.344 10.3026 129.741 10.6235C130.147 10.9445 130.973 11.4118 132.219 12.0254C133.88 12.8372 134.971 13.6019 135.49 14.3193C136.009 15.0368 136.269 16.0799 136.269 17.4487C136.269 18.978 136.07 20.1344 135.674 20.918C135.277 21.692 134.612 22.2915 133.677 22.7163C132.752 23.1317 131.633 23.3393 130.321 23.3393C128.868 23.3393 127.621 23.1128 126.583 22.6597C125.554 22.2065 124.846 21.5929 124.459 20.8188C124.072 20.0447 123.878 18.8742 123.878 17.3071V16.4009H128.948V17.5903C128.948 18.6004 129.009 19.2565 129.132 19.5586C129.264 19.8607 129.519 20.0117 129.896 20.0117C130.302 20.0117 130.586 19.9126 130.746 19.7143C130.907 19.5067 130.987 19.0771 130.987 18.4258C130.987 17.529 130.883 16.9673 130.675 16.7407C130.458 16.5141 129.349 15.8439 127.348 14.73C125.667 13.786 124.643 12.9316 124.275 12.167C123.907 11.3929 123.723 10.4772 123.723 9.41992C123.723 7.91894 123.921 6.81445 124.317 6.10644C124.714 5.389 125.384 4.83675 126.328 4.44971C127.282 4.06266 128.386 3.86914 129.642 3.86914C130.888 3.86914 131.945 4.02962 132.813 4.35058C133.691 4.66211 134.362 5.07747 134.824 5.59668C135.296 6.11588 135.579 6.59733 135.674 7.04101C135.778 7.4847 135.83 8.17855 135.83 9.12256V10.2129ZM143.83 1.70263V4.66211H145.374V7.63574H143.83V17.6894C143.83 18.9261 143.891 19.6152 144.014 19.7568C144.146 19.8984 144.68 19.9692 145.614 19.9692V22.9995H143.306C142.003 22.9995 141.074 22.9476 140.517 22.8437C139.96 22.7305 139.469 22.4803 139.044 22.0933C138.619 21.6968 138.355 21.2484 138.251 20.748C138.147 20.2383 138.095 19.0488 138.095 17.1797V7.63574H136.863V4.66211H138.095V1.70263H143.83ZM151.746 11.4873H146.379V10.227C146.379 8.77327 146.544 7.65462 146.875 6.87109C147.214 6.07812 147.889 5.37956 148.899 4.77539C149.91 4.17122 151.222 3.86914 152.836 3.86914C154.771 3.86914 156.23 4.2137 157.211 4.90283C158.193 5.58252 158.783 6.42269 158.981 7.42334C159.18 8.41455 159.279 10.463 159.279 13.5688V22.9995H153.714V21.3286C153.365 21.9988 152.911 22.5039 152.354 22.8437C151.807 23.1741 151.151 23.3393 150.386 23.3393C149.386 23.3393 148.465 23.0609 147.625 22.5039C146.794 21.9375 146.379 20.7056 146.379 18.8081V17.2646C146.379 15.8581 146.601 14.8999 147.044 14.3901C147.488 13.8804 148.588 13.2856 150.344 12.6059C152.222 11.8696 153.228 11.374 153.36 11.1191C153.492 10.8642 153.558 10.345 153.558 9.56152C153.558 8.57975 153.483 7.94254 153.332 7.6499C153.19 7.34782 152.949 7.19678 152.609 7.19678C152.222 7.19678 151.982 7.32422 151.887 7.5791C151.793 7.82454 151.746 8.47119 151.746 9.51904V11.4873ZM153.558 14.0644C152.642 14.7347 152.109 15.2964 151.958 15.7495C151.816 16.2026 151.746 16.854 151.746 17.7036C151.746 18.6759 151.807 19.3037 151.93 19.5869C152.062 19.8701 152.317 20.0117 152.694 20.0117C153.053 20.0117 153.284 19.9031 153.388 19.686C153.501 19.4595 153.558 18.8742 153.558 17.9302V14.0644ZM167.067 4.20898L166.968 5.93652C167.383 5.24739 167.888 4.73291 168.483 4.39306C169.087 4.04378 169.781 3.86914 170.564 3.86914C171.546 3.86914 172.349 4.10042 172.972 4.56299C173.595 5.02555 173.996 5.61084 174.175 6.31885C174.355 7.01741 174.444 8.18799 174.444 9.83056V22.9995H168.724V9.98633C168.724 8.69303 168.681 7.90478 168.596 7.62158C168.511 7.33838 168.275 7.19678 167.888 7.19678C167.482 7.19678 167.227 7.36198 167.124 7.69238C167.02 8.01334 166.968 8.88183 166.968 10.2978V22.9995H161.247V4.20898H167.067ZM189.072 11.3032H183.677V9.13672C183.677 8.38151 183.615 7.87174 183.493 7.60742C183.37 7.33366 183.143 7.19678 182.813 7.19678C182.483 7.19678 182.261 7.31478 182.147 7.55078C182.034 7.78678 181.978 8.31543 181.978 9.13672V18.001C181.978 18.6712 182.062 19.1763 182.232 19.5161C182.402 19.8465 182.653 20.0117 182.983 20.0117C183.37 20.0117 183.63 19.8371 183.762 19.4878C183.903 19.1385 183.974 18.4777 183.974 17.5054V15.2681H189.072C189.062 16.769 189.006 17.8971 188.902 18.6523C188.807 19.3981 188.491 20.1675 187.953 20.9604C187.424 21.744 186.731 22.3387 185.872 22.7446C185.013 23.1411 183.951 23.3393 182.686 23.3393C181.071 23.3393 179.792 23.0656 178.848 22.5181C177.904 21.9611 177.234 21.187 176.837 20.1958C176.45 19.1951 176.257 17.7791 176.257 15.9477V10.6094C176.257 9.014 176.417 7.81038 176.738 6.99853C177.059 6.18668 177.744 5.46452 178.792 4.83203C179.839 4.1901 181.114 3.86914 182.615 3.86914C184.106 3.86914 185.381 4.18538 186.438 4.81787C187.495 5.45036 188.199 6.24805 188.548 7.21094C188.897 8.17383 189.072 9.53792 189.072 11.3032ZM203.742 13.937H196.336V18.001C196.336 18.8506 196.397 19.3981 196.52 19.6435C196.643 19.889 196.879 20.0117 197.228 20.0117C197.662 20.0117 197.95 19.8512 198.092 19.5303C198.243 19.1999 198.318 18.5674 198.318 17.6328V15.1548H203.742V16.5425C203.742 17.7036 203.666 18.5957 203.515 19.2187C203.374 19.8418 203.034 20.5073 202.496 21.2153C201.958 21.9233 201.273 22.4567 200.442 22.8154C199.621 23.1647 198.587 23.3393 197.341 23.3393C196.133 23.3393 195.066 23.1647 194.141 22.8154C193.216 22.4661 192.494 21.9894 191.975 21.3852C191.465 20.7716 191.111 20.1014 190.913 19.3745C190.714 18.6382 190.615 17.5714 190.615 16.1743V10.6943C190.615 9.05176 190.837 7.75846 191.281 6.81445C191.724 5.861 192.451 5.13411 193.461 4.63379C194.472 4.12402 195.633 3.86914 196.945 3.86914C198.55 3.86914 199.871 4.17594 200.91 4.78955C201.958 5.39372 202.689 6.20084 203.104 7.21094C203.529 8.21159 203.742 9.62288 203.742 11.4448V13.937ZM198.007 10.8784V9.50488C198.007 8.53255 197.955 7.90478 197.851 7.62158C197.747 7.33838 197.535 7.19678 197.214 7.19678C196.817 7.19678 196.572 7.3195 196.478 7.56494C196.383 7.80094 196.336 8.44759 196.336 9.50488V10.8784H198.007ZM229.315 0.0742188V22.9995H224.104V7.52246L222.022 22.9995H218.327L216.132 7.87646V22.9995H210.921V0.0742188H218.638C218.865 1.45247 219.105 3.07617 219.36 4.94531L220.182 10.7793L221.541 0.0742188H229.315ZM244.48 10.8076V15.4097C244.48 17.0994 244.396 18.3408 244.226 19.1338C244.056 19.9173 243.692 20.6536 243.135 21.3428C242.578 22.0224 241.861 22.5275 240.983 22.8579C240.114 23.1789 239.114 23.3393 237.981 23.3393C236.716 23.3393 235.645 23.2025 234.767 22.9287C233.889 22.6455 233.204 22.2254 232.713 21.6684C232.232 21.102 231.887 20.4224 231.68 19.6294C231.472 18.827 231.368 17.6281 231.368 16.0327V11.2183C231.368 9.47184 231.557 8.10775 231.935 7.12597C232.312 6.1442 232.992 5.35596 233.974 4.76123C234.955 4.1665 236.211 3.86914 237.74 3.86914C239.024 3.86914 240.124 4.06266 241.04 4.44971C241.965 4.82731 242.677 5.32291 243.178 5.93652C243.678 6.55013 244.018 7.18262 244.197 7.83398C244.386 8.48535 244.48 9.47656 244.48 10.8076ZM238.76 9.3916C238.76 8.42871 238.708 7.82454 238.604 7.5791C238.5 7.32422 238.278 7.19678 237.938 7.19678C237.599 7.19678 237.372 7.32422 237.259 7.5791C237.146 7.82454 237.089 8.42871 237.089 9.3916V17.8735C237.089 18.7609 237.146 19.3415 237.259 19.6152C237.372 19.8795 237.594 20.0117 237.924 20.0117C238.264 20.0117 238.486 19.889 238.59 19.6435C238.703 19.3981 238.76 18.8695 238.76 18.0576V9.3916ZM258.202 4.20898L255.525 22.9995H248.063L245.188 4.20898H250.3L251.9 17.916C252.023 16.9154 252.231 14.4609 252.523 10.5527C252.693 8.37207 252.882 6.25749 253.09 4.20898H258.202ZM272.022 13.937H264.616V18.001C264.616 18.8506 264.678 19.3981 264.8 19.6435C264.923 19.889 265.159 20.0117 265.508 20.0117C265.943 20.0117 266.23 19.8512 266.372 19.5303C266.523 19.1999 266.599 18.5674 266.599 17.6328V15.1548H272.022V16.5425C272.022 17.7036 271.946 18.5957 271.795 19.2187C271.654 19.8418 271.314 20.5073 270.776 21.2153C270.238 21.9233 269.553 22.4567 268.723 22.8154C267.901 23.1647 266.868 23.3393 265.622 23.3393C264.413 23.3393 263.347 23.1647 262.421 22.8154C261.496 22.4661 260.774 21.9894 260.255 21.3852C259.745 20.7716 259.391 20.1014 259.193 19.3745C258.995 18.6382 258.896 17.5714 258.896 16.1743V10.6943C258.896 9.05176 259.117 7.75846 259.561 6.81445C260.005 5.861 260.732 5.13411 261.742 4.63379C262.752 4.12402 263.913 3.86914 265.225 3.86914C266.83 3.86914 268.152 4.17594 269.19 4.78955C270.238 5.39372 270.969 6.20084 271.385 7.21094C271.81 8.21159 272.022 9.62288 272.022 11.4448V13.937ZM266.287 10.8784V9.50488C266.287 8.53255 266.235 7.90478 266.131 7.62158C266.028 7.33838 265.815 7.19678 265.494 7.19678C265.098 7.19678 264.852 7.3195 264.758 7.56494C264.663 7.80094 264.616 8.44759 264.616 9.50488V10.8784H266.287ZM279.626 4.20898L279.399 6.67285C280.23 4.90755 281.434 3.97298 283.01 3.86914V10.4819C281.962 10.4819 281.193 10.6235 280.702 10.9067C280.211 11.1899 279.909 11.5864 279.796 12.0962C279.683 12.5965 279.626 13.7576 279.626 15.5796V22.9995H273.905V4.20898H279.626ZM295.981 10.2129H290.912V9.19336C290.912 8.32487 290.86 7.77734 290.756 7.55078C290.661 7.31478 290.416 7.19678 290.02 7.19678C289.699 7.19678 289.458 7.30534 289.297 7.52246C289.137 7.73014 289.057 8.04639 289.057 8.47119C289.057 9.04704 289.094 9.47184 289.17 9.7456C289.255 10.0099 289.496 10.3026 289.892 10.6235C290.298 10.9445 291.124 11.4118 292.37 12.0254C294.032 12.8372 295.122 13.6019 295.641 14.3193C296.16 15.0368 296.42 16.0799 296.42 17.4487C296.42 18.978 296.222 20.1344 295.825 20.918C295.429 21.692 294.763 22.2915 293.829 22.7163C292.903 23.1317 291.785 23.3393 290.473 23.3393C289.019 23.3393 287.773 23.1128 286.734 22.6597C285.705 22.2065 284.997 21.5929 284.61 20.8188C284.223 20.0447 284.03 18.8742 284.03 17.3071V16.4009H289.099V17.5903C289.099 18.6004 289.16 19.2565 289.283 19.5586C289.415 19.8607 289.67 20.0117 290.048 20.0117C290.454 20.0117 290.737 19.9126 290.897 19.7143C291.058 19.5067 291.138 19.0771 291.138 18.4258C291.138 17.529 291.034 16.9673 290.827 16.7407C290.61 16.5141 289.5 15.8439 287.499 14.73C285.819 13.786 284.794 12.9316 284.426 12.167C284.058 11.3929 283.874 10.4772 283.874 9.41992C283.874 7.91894 284.072 6.81445 284.469 6.10644C284.865 5.389 285.535 4.83675 286.479 4.44971C287.433 4.06266 288.537 3.86914 289.793 3.86914C291.039 3.86914 292.096 4.02962 292.965 4.35058C293.843 4.66211 294.513 5.07747 294.976 5.59668C295.448 6.11588 295.731 6.59733 295.825 7.04101C295.929 7.4847 295.981 8.17855 295.981 9.12256V10.2129Z" fill="#0A4671"/>
</g>
<defs>
<clipPath id="clip0_1_953">
<rect width="297" height="27" fill="white"/>
</clipPath>
</defs>
</svg>
