<svg width="20" height="20" viewBox="0 0 20 20" fill="none" xmlns="http://www.w3.org/2000/svg">
<path d="M15.8333 3.5415H4.16667C2.9025 3.5415 1.875 4.569 1.875 5.83317V14.1665C1.875 15.4307 2.9025 16.4582 4.16667 16.4582H15.8333C17.0975 16.4582 18.125 15.4307 18.125 14.1665V5.83317C18.125 4.569 17.0975 3.5415 15.8333 3.5415ZM15.8333 4.7915C15.8525 4.7915 15.8692 4.8015 15.8875 4.80234L10.625 8.74984C10.2567 9.02567 9.7425 9.02567 9.375 8.74984L4.1125 4.80234C4.13167 4.8015 4.1475 4.7915 4.16667 4.7915H15.8333ZM16.875 14.1665C16.875 14.7407 16.4075 15.2082 15.8333 15.2082H4.16667C3.5925 15.2082 3.125 14.7407 3.125 14.1665V5.83317C3.125 5.769 3.15083 5.71317 3.16167 5.65234L8.625 9.74984C9.03 10.0532 9.515 10.2048 10 10.2048C10.485 10.2048 10.9708 10.0532 11.375 9.74984L16.8383 5.65234C16.8492 5.71317 16.875 5.769 16.875 5.83317V14.1665Z" fill="#848EB4"/>
</svg>
