<svg width="20" height="20" viewBox="0 0 20 20" fill="none" xmlns="http://www.w3.org/2000/svg">
<path d="M10.125 9.375C9.20904 9.375 8.31364 9.13674 7.55204 8.69035C6.79045 8.24395 6.19685 7.60948 5.84632 6.86715C5.4958 6.12483 5.40408 5.308 5.58278 4.51995C5.76148 3.7319 6.20256 3.00803 6.85025 2.43988C7.49793 1.87173 8.32314 1.48481 9.22151 1.32806C10.1199 1.17131 11.0511 1.25176 11.8973 1.55924C12.7435 1.86672 13.4668 2.38742 13.9757 3.0555C14.4846 3.72357 14.7562 4.50902 14.7562 5.3125C14.7547 6.38954 14.2663 7.42208 13.3981 8.18366C12.5299 8.94524 11.3528 9.37368 10.125 9.375ZM10.125 2.5C9.49088 2.5 8.87099 2.66495 8.34373 2.97399C7.81647 3.28304 7.40552 3.72229 7.16284 4.2362C6.92017 4.75012 6.85668 5.31562 6.98039 5.86119C7.1041 6.40676 7.40947 6.9079 7.85787 7.30124C8.30627 7.69457 8.87756 7.96244 9.49951 8.07096C10.1215 8.17948 10.7661 8.12378 11.352 7.91091C11.9378 7.69804 12.4386 7.33756 12.7909 6.87504C13.1432 6.41253 13.3312 5.86876 13.3312 5.3125C13.3303 4.56683 12.9922 3.85194 12.3911 3.32468C11.79 2.79741 10.9751 2.50083 10.125 2.5ZM10.125 18.75C8.05646 18.7465 6.00827 18.3915 4.09374 17.7044C3.76742 17.5846 3.48914 17.3823 3.29436 17.1233C3.09958 16.8643 2.99713 16.5603 3.00006 16.25C3.00006 14.5924 3.75072 13.0027 5.08691 11.8306C6.4231 10.6585 8.23536 10 10.125 10C12.0147 10 13.8269 10.6585 15.1631 11.8306C16.4993 13.0027 17.25 14.5924 17.25 16.25C17.2523 16.562 17.1483 16.8676 16.9512 17.1274C16.7542 17.3872 16.4732 17.5894 16.1442 17.7081C14.2348 18.3973 12.1898 18.7513 10.125 18.75ZM10.125 11.25C8.61381 11.2515 7.16499 11.7788 6.09641 12.7161C5.02782 13.6535 4.42675 14.9244 4.42505 16.25C4.42344 16.3126 4.44284 16.3742 4.48085 16.4272C4.51885 16.4803 4.57378 16.5223 4.6388 16.5481C6.38027 17.1733 8.24335 17.4966 10.125 17.5C12.0042 17.5013 13.8655 17.1792 15.6034 16.5519C15.67 16.5262 15.7266 16.4839 15.766 16.4302C15.8054 16.3765 15.8259 16.3138 15.825 16.25C15.8233 14.9244 15.2222 13.6535 14.1536 12.7161C13.085 11.7788 11.6362 11.2515 10.125 11.25Z" fill="#848EB4"/>
</svg>
