<svg width="17" height="18" viewBox="0 0 17 18" fill="none" xmlns="http://www.w3.org/2000/svg">
<path fill-rule="evenodd" clip-rule="evenodd" d="M11.8998 17.3333H5.0915C2.14984 17.3333 0.166504 15.4408 0.166504 12.6166V5.39163C0.166504 2.56663 2.14984 0.666626 5.0915 0.666626H11.8998C14.8498 0.666626 16.8332 2.56663 16.8332 5.39163V12.6166C16.8332 15.4408 14.8498 17.3333 11.8998 17.3333ZM10.3915 8.37496H5.09984C4.74984 8.37496 4.47484 8.65829 4.47484 8.99996C4.47484 9.34996 4.74984 9.62496 5.09984 9.62496H10.3915L8.32484 11.6833C8.20817 11.8 8.1415 11.9666 8.1415 12.125C8.1415 12.2825 8.20817 12.4416 8.32484 12.5666C8.5665 12.8083 8.9665 12.8083 9.20817 12.5666L12.3498 9.44163C12.5832 9.20829 12.5832 8.79163 12.3498 8.55829L9.20817 5.43329C8.9665 5.19163 8.5665 5.19163 8.32484 5.43329C8.08317 5.68329 8.08317 6.07496 8.32484 6.32496L10.3915 8.37496Z" fill="#01BEED"/>
</svg>
