<svg width="16" height="19" viewBox="0 0 16 19" fill="none" xmlns="http://www.w3.org/2000/svg">
<path d="M15.187 10.8748C15.1008 10.9632 14.7754 11.3414 14.4724 11.6525C12.6956 13.6091 8.06038 16.8116 5.63435 17.7891C5.26591 17.9462 4.33442 18.2787 3.83673 18.3C3.35984 18.3 2.90524 18.1902 2.47143 17.9676C1.93066 17.6565 1.49686 17.1669 1.25916 16.589C1.10614 16.1879 0.868437 14.9877 0.868437 14.9664C0.630736 13.6533 0.5 11.5199 0.5 9.16221C0.5 6.91588 0.630736 4.86933 0.825353 3.53648C0.847638 3.51513 1.08534 2.02368 1.34532 1.5128C1.82221 0.579501 2.7537 0 3.75056 0H3.83673C4.48595 0.022875 5.85125 0.602376 5.85125 0.623726C8.14655 1.60278 12.6748 4.6482 14.4947 6.67188C14.4947 6.67188 15.0072 7.19191 15.23 7.51673C15.5777 7.98338 15.75 8.56136 15.75 9.13933C15.75 9.78441 15.5554 10.3853 15.187 10.8748" fill="#00193F"/>
</svg>
