<svg width="20" height="16" viewBox="0 0 20 16" fill="none" xmlns="http://www.w3.org/2000/svg">
<path d="M16.4399 7.97392C16.4639 7.95892 16.4897 7.94572 16.5167 7.93552L18.3659 7.00791L16.5449 4.67809L10.7351 7.33372L12.7943 9.80394L16.4399 7.97512V7.97392ZM3.13298 3.69288L9.80984 0.64125C9.93524 0.583649 10.0732 0.587849 10.1902 0.64125L16.8671 3.69288C16.9385 3.72408 17.0003 3.77388 17.0471 3.83568L19.4297 6.88371C19.5851 7.08292 19.5497 7.37032 19.3511 7.52572C19.3217 7.54852 19.2911 7.56712 19.2587 7.58212L17.1419 8.64413V11.9256C17.1419 12.1254 17.0141 12.2952 16.8365 12.3582L10.2274 15.3792C10.1608 15.417 10.0834 15.4392 10.0006 15.4392C9.91844 15.4392 9.84104 15.4176 9.77384 15.3792L3.12818 12.3414C2.96017 12.2646 2.86117 12.099 2.86057 11.9256H2.85877V8.64413L0.741951 7.58212C0.709551 7.56772 0.678351 7.54852 0.649551 7.52572C0.450349 7.37032 0.414948 7.08292 0.57095 6.88371L2.95357 3.83568L2.96017 3.82728C3.00757 3.76908 3.06457 3.72348 3.13418 3.69288H3.13298ZM3.45578 4.67749L1.63476 7.00731L3.48398 7.93492C3.51098 7.94512 3.53678 7.95832 3.56078 7.97332L7.20642 9.80214L9.26564 7.33192L3.45578 4.67629V4.67749ZM10.459 8.43053V14.2674L16.2233 11.6328V9.10554L12.8795 10.7832C12.6839 10.881 12.4517 10.8252 12.3197 10.6626L10.459 8.43053ZM9.54044 14.2674V8.43053L7.67982 10.6626C7.54782 10.8258 7.31562 10.881 7.12002 10.7832L3.77618 9.10554V11.6328L9.54044 14.2674ZM4.41759 4.11108L9.99944 6.66231L15.5813 4.11108L9.99944 1.55986L4.41759 4.11108Z" fill="#2D72B3"/>
</svg>
