<svg width="9" height="18" viewBox="0 0 9 18" fill="none" xmlns="http://www.w3.org/2000/svg">
<path d="M8.99281 15.5531C8.81848 15.5587 8.64864 15.6081 8.49588 15.6962L4.50065 17.8931C4.0118 18.1387 3.42681 17.9481 3.15273 17.456C3.05119 17.255 3.01434 17.0246 3.04849 16.7989L3.84646 12.1293C3.90038 11.7899 3.79254 11.4447 3.558 11.2058L0.295144 7.88066C-0.0921583 7.48149 -0.0993472 6.82632 0.279867 6.41767C0.285259 6.41198 0.289752 6.40724 0.295144 6.4025C0.449705 6.24132 0.649197 6.13513 0.863965 6.10194L5.36871 5.40411C5.6949 5.36049 5.97797 5.14621 6.12175 4.83522L8.07982 0.53348C8.26583 0.186459 8.62258 -0.0202367 9 0.00157062C8.99281 0.28317 8.99281 15.3615 8.99281 15.5531Z" fill="#F7C748"/>
</svg>
