<svg width="8" height="8" viewBox="0 0 8 8" fill="none" xmlns="http://www.w3.org/2000/svg">
<path d="M7.26066 5.91774C7.62899 6.28607 7.62899 6.8819 7.26066 7.24915C7.07649 7.43332 6.83816 7.5319 6.58899 7.5319C6.35066 7.5319 6.11232 7.44524 5.92815 7.24915L3.99982 5.33274L2.07149 7.24915C1.88732 7.43332 1.64899 7.5319 1.39982 7.5319C1.16149 7.5319 0.912321 7.43332 0.728154 7.24915C0.359821 6.8819 0.359821 6.28607 0.728154 5.9069L2.65649 3.9894L0.728154 2.05999C0.359821 1.69274 0.359821 1.08607 0.728154 0.717736C1.09649 0.34832 1.69232 0.34832 2.07149 0.717736L3.99982 2.64499L5.91732 0.717736C6.29649 0.34832 6.89232 0.34832 7.26066 0.717736C7.62899 1.08607 7.62899 1.69274 7.26066 2.05999L5.33232 3.9894L7.26066 5.91774Z" fill="#DC3804"/>
</svg>
