<svg width="12" height="12" viewBox="0 0 12 12" fill="none" xmlns="http://www.w3.org/2000/svg">
<path fill-rule="evenodd" clip-rule="evenodd" d="M4.45512 11.5995C4.38039 11.4807 4.30813 11.3605 4.23801 11.2387C3.61185 10.1529 2.98066 8.62722 2.84427 6.74908C2.8345 6.61451 2.72341 6.50731 2.58633 6.50731H0.258123C0.104486 6.50731 -0.0173351 6.64246 0.00202855 6.79887C0.150979 8.00194 0.631764 9.13574 1.38782 10.0627C2.12022 10.9606 3.08005 11.6265 4.15766 11.9855C4.39813 12.0656 4.57883 11.7962 4.45512 11.5995ZM1.53759 9.93883C2.2471 10.8087 3.17628 11.453 4.21852 11.8002C4.20147 11.7945 4.18445 11.7888 4.16746 11.7829C4.14836 11.7764 4.12929 11.7697 4.11027 11.7629L4.09614 11.7579C3.10356 11.402 2.2192 10.7745 1.53759 9.93883ZM4.2318 11.608L4.26391 11.66C4.25315 11.6427 4.24245 11.6254 4.2318 11.608Z" fill="#1B4E76"/>
<path fill-rule="evenodd" clip-rule="evenodd" d="M4.45552 0.400225C4.38372 0.514626 4.311 0.635161 4.23674 0.761948C3.61153 1.84775 2.98064 3.37314 2.84427 5.25092C2.8345 5.38549 2.72341 5.49269 2.58633 5.49269H0.258123C0.104487 5.49269 -0.0173351 5.35754 0.00202855 5.20113C0.150979 3.99806 0.631764 2.86426 1.38782 1.93732C2.12027 1.03932 3.08017 0.373394 4.15787 0.0144681C4.39811 -0.0655405 4.57903 0.20344 4.45552 0.400225ZM4.06944 0.663451C4.12188 0.573916 4.17368 0.487249 4.22505 0.403448L4.23175 0.392527L4.26462 0.339329L4.29168 0.295998C4.2185 0.412588 4.14463 0.535072 4.06944 0.663451Z" fill="#1B4E76"/>
<path fill-rule="evenodd" clip-rule="evenodd" d="M7.54448 11.5998C7.61627 11.4854 7.68897 11.3649 7.76322 11.2381C8.38844 10.1523 9.01936 8.6269 9.15573 6.74908C9.1655 6.61451 9.27659 6.50731 9.41367 6.50731H11.7419C11.8955 6.50731 12.0173 6.64246 11.998 6.79887C11.849 8.00194 11.3682 9.13574 10.6122 10.0627C9.87973 10.9607 8.91983 11.6266 7.84213 11.9855C7.6019 12.0655 7.42097 11.7966 7.54448 11.5998ZM10.4624 9.93883C9.75284 10.8088 8.82358 11.4531 7.78125 11.8003C7.79834 11.7946 7.81542 11.7888 7.83245 11.783C7.8515 11.7764 7.87051 11.7698 7.88947 11.763L7.90349 11.758C8.89622 11.4022 9.78069 10.7746 10.4624 9.93883ZM7.76408 11.6142C7.75589 11.6275 7.74771 11.6408 7.73954 11.6539L7.76408 11.6142Z" fill="#1B4E76"/>
<path fill-rule="evenodd" clip-rule="evenodd" d="M9.15573 5.25092C9.01935 3.37299 8.38837 1.84751 7.76311 0.761692C7.69223 0.639696 7.61971 0.519322 7.54493 0.400519C7.42109 0.203791 7.60194 -0.0655372 7.84234 0.0145404C8.91996 0.373483 9.87978 1.03938 10.6122 1.93732C11.3682 2.86426 11.849 3.99806 11.998 5.20113C12.0173 5.35754 11.8955 5.49269 11.7419 5.49269H9.41367C9.27659 5.49269 9.1655 5.38549 9.15573 5.25092ZM7.70863 0.296071L7.73565 0.339213L7.7687 0.392594L7.77548 0.40363C7.75339 0.367648 7.73112 0.331807 7.70863 0.296071Z" fill="#1B4E76"/>
<path fill-rule="evenodd" clip-rule="evenodd" d="M3.81406 6.79044C3.93898 8.17851 4.36508 9.51969 5.06094 10.7128C5.28144 11.0959 5.52789 11.462 5.79723 11.8087C5.89996 11.9409 6.09905 11.942 6.20264 11.8091C6.41885 11.532 6.67901 11.1636 6.93904 10.7129C7.63492 9.51972 8.06102 8.17853 8.18594 6.79044C8.19971 6.63738 8.0796 6.50731 7.92881 6.50731H4.07119C3.9204 6.50731 3.80029 6.63738 3.81406 6.79044Z" fill="#1B4E76"/>
<path fill-rule="evenodd" clip-rule="evenodd" d="M8.18594 5.20956C8.06101 3.82146 7.63491 2.48025 6.93901 1.2871C6.67825 0.836549 6.41883 0.468171 6.20262 0.190833C6.09909 0.0580439 5.9001 0.0590238 5.79732 0.191113C5.52737 0.538045 5.28129 0.904327 5.06091 1.28723C4.36506 2.48035 3.93898 3.82151 3.81406 5.20956C3.80029 5.36263 3.9204 5.49269 4.07119 5.49269H7.92881C8.0796 5.49269 8.19971 5.36263 8.18594 5.20956Z" fill="#1B4E76"/>
</svg>
