<svg width="18" height="18" viewBox="0 0 18 18" fill="none" xmlns="http://www.w3.org/2000/svg">
<path d="M16.8629 1.15161C16.4461 0.723791 15.8291 0.564407 15.2539 0.73218L1.84008 4.6329C1.23316 4.80151 0.802987 5.28553 0.687107 5.90042C0.568725 6.52621 0.982227 7.32062 1.52245 7.65281L5.71667 10.2306C6.14684 10.4949 6.70207 10.4286 7.05805 10.0696L11.8608 5.23688C12.1026 4.98522 12.5028 4.98522 12.7445 5.23688C12.9863 5.48015 12.9863 5.87441 12.7445 6.12607L7.93341 10.9596C7.57659 11.3178 7.5099 11.8756 7.77251 12.3085L10.3352 16.5448C10.6353 17.0481 11.1522 17.3333 11.7191 17.3333C11.7858 17.3333 11.8608 17.3333 11.9275 17.3249C12.5778 17.241 13.0947 16.7964 13.2864 16.1673L17.2631 2.77062C17.4381 2.20019 17.2797 1.57943 16.8629 1.15161" fill="#01BEED"/>
</svg>
