<svg width="16" height="18" viewBox="0 0 16 18" fill="none" xmlns="http://www.w3.org/2000/svg">
<path fill-rule="evenodd" clip-rule="evenodd" d="M7.77349 17.2613C7.86578 17.3096 7.96897 17.3341 8.07216 17.3333C8.17535 17.3324 8.2777 17.3071 8.37082 17.2581L11.3441 15.6687C12.1872 15.2192 12.8475 14.7167 13.3626 14.1316C14.4826 12.8568 15.0942 11.2298 15.0832 9.55216L15.048 4.01828C15.0447 3.38089 14.626 2.81213 14.0069 2.60539L8.47569 0.749596C8.14263 0.636827 7.77769 0.639278 7.4505 0.755316L1.94029 2.6773C1.3245 2.89222 0.913413 3.46505 0.916768 4.10326L0.952004 9.63306C0.962911 11.3132 1.59548 12.9328 2.73393 14.1945C3.25408 14.7714 3.9202 15.2666 4.77258 15.7087L7.77349 17.2613ZM6.98639 10.7574C7.11055 10.8767 7.27163 10.9355 7.43271 10.9339C7.59379 10.9331 7.75403 10.8726 7.87651 10.7517L11.1258 7.54837C11.3699 7.30731 11.3674 6.91997 11.1207 6.68217C10.8732 6.44438 10.4747 6.44601 10.2306 6.68708L7.42348 9.45401L6.27412 8.3492C6.02663 8.1114 5.62897 8.11385 5.384 8.35492C5.13986 8.59599 5.14238 8.98332 5.38987 9.22112L6.98639 10.7574Z" fill="#01BEED"/>
</svg>
