<svg width="18" height="16" viewBox="0 0 18 16" fill="none" xmlns="http://www.w3.org/2000/svg">
<path d="M13.932 9.9335C13.7162 10.1427 13.617 10.4452 13.6662 10.7418L14.407 14.8418C14.4695 15.1893 14.3228 15.541 14.032 15.7418C13.747 15.9502 13.3678 15.9752 13.057 15.8085L9.36616 13.8835C9.23782 13.8152 9.09532 13.7785 8.94949 13.7743H8.72366C8.64532 13.786 8.56866 13.811 8.49866 13.8493L4.80699 15.7835C4.62449 15.8752 4.41782 15.9077 4.21532 15.8752C3.72199 15.7818 3.39282 15.3118 3.47366 14.816L4.21532 10.716C4.26449 10.4168 4.16532 10.1127 3.94949 9.90016L0.940323 6.9835C0.688656 6.73933 0.601156 6.37266 0.716156 6.04183C0.827823 5.71183 1.11282 5.471 1.45699 5.41683L5.59866 4.816C5.91366 4.7835 6.19032 4.59183 6.33199 4.3085L8.15699 0.566829C8.20032 0.483496 8.25616 0.406829 8.32366 0.341829L8.39866 0.283496C8.43782 0.240163 8.48282 0.204329 8.53282 0.175163L8.62366 0.141829L8.76532 0.0834961H9.11616C9.42949 0.115996 9.70532 0.303496 9.84949 0.583496L11.6987 4.3085C11.832 4.581 12.0912 4.77016 12.3903 4.816L16.532 5.41683C16.882 5.46683 17.1745 5.7085 17.2903 6.04183C17.3995 6.376 17.3053 6.74266 17.0487 6.9835L13.932 9.9335Z" fill="#F7C748"/>
</svg>
