<svg width="11" height="9" viewBox="0 0 11 9" fill="none" xmlns="http://www.w3.org/2000/svg">
<path d="M10.3 1.45C9.95 1.6 9.55 1.7 9.15 1.75C9.55 1.5 9.9 1.1 10.05 0.650002C9.65 0.900002 9.25 1.05 8.75 1.15C8.4 0.750002 7.85 0.5 7.3 0.5C6.2 0.5 5.3 1.4 5.3 2.5C5.3 2.65 5.3 2.8 5.35 2.95C3.7 2.85 2.2 2.05 1.2 0.849998C1.05 1.15 0.949997 1.5 0.949997 1.85C0.949997 2.55 1.3 3.15 1.85 3.5C1.5 3.5 1.2 3.4 0.949997 3.25C0.949997 4.2 1.65 5.05 2.55 5.2C2.4 5.25 2.2 5.25 2 5.25C1.85 5.25 1.75 5.25 1.6 5.2C1.85 6 2.6 6.6 3.5 6.6C2.8 7.15 1.95 7.45 1 7.45C0.85 7.45 0.7 7.45 0.5 7.4C1.4 7.95 2.45 8.3 3.6 8.3C7.3 8.3 9.3 5.25 9.3 2.6V2.35C9.7 2.2 10.05 1.85 10.3 1.45Z" fill="white"/>
</svg>
