<svg width="12" height="8" viewBox="0 0 12 8" fill="none" xmlns="http://www.w3.org/2000/svg">
<path fill-rule="evenodd" clip-rule="evenodd" d="M1.63124 7.52841C1.43511 7.47038 1.25616 7.36715 1.10948 7.22743C0.9628 7.08771 0.852701 6.9156 0.788474 6.72561C0.421461 5.74368 0.312716 1.64347 1.01956 0.834037C1.25481 0.570724 1.58695 0.408609 1.94389 0.38288C3.84012 0.18384 9.69874 0.210379 10.3716 0.449226C10.5608 0.509161 10.7337 0.610128 10.8773 0.744561C11.0209 0.878994 11.1315 1.04341 11.2008 1.22548C11.6018 2.24058 11.6154 5.92946 11.1464 6.90475C11.022 7.15863 10.8137 7.36427 10.5551 7.4886C9.84826 7.8336 2.56917 7.82697 1.63124 7.52841V7.52841ZM4.64211 5.60436L8.04038 3.87935L4.64211 2.14106V5.60436Z" fill="white"/>
</svg>
